<svg width="265" height="52" viewBox="30 0 265 52" fill="none" xmlns="http://www.w3.org/2000/svg">
<g clip-path="url(#clip0_202_240)">
<path d="M71.26 15.2295C73.6575 18.0456 75.195 21.4915 75.6894 25.1567C76.1838 28.822 75.6142 32.5521 74.0485 35.9028C72.4721 39.2608 69.9709 42.0998 66.8384 44.0868C63.7058 46.0739 60.0716 47.1267 56.362 47.1218L49.875 46.02C46.0792 44.6977 42.788 42.2285 40.4567 38.954C38.1255 35.6796 36.8693 31.7616 36.862 27.742V27.6315H62.862C66.463 27.6315 69.362 24.7325 69.362 21.1315V14.9565" fill="#000210"/>
<path d="M39.501 37.375C41.8115 41.4053 45.4914 44.4728 49.8717 46.02L56.3587 47.125C63.3787 47.125 69.7747 43.355 73.2327 37.375H39.4977H39.501Z" fill="#000210"/>
<path d="M56.3652 37.375V50.3847C52.761 50.3847 49.8652 47.4858 49.8652 43.8848V37.3848" fill="#000210"/>
<path d="M71.208 13.5881C70.8997 13.5957 70.5999 13.6911 70.3437 13.8627C70.0874 14.0343 69.8853 14.2751 69.7609 14.5573C69.6365 14.8395 69.595 15.1514 69.6411 15.4563C69.6873 15.7612 69.8193 16.0465 70.0217 16.2791C72.2196 18.8573 73.6294 22.0133 74.0829 25.3706C74.5364 28.7279 74.0145 32.1449 72.5795 35.2138C71.1345 38.293 68.8411 40.8961 65.9685 42.7175C63.0959 44.5389 59.7634 45.5028 56.362 45.4966C55.931 45.4966 55.5177 45.6679 55.213 45.9727C54.9082 46.2774 54.737 46.6906 54.737 47.1216C54.737 47.5526 54.9082 47.9662 55.213 48.2709C55.5177 48.5757 55.931 48.7466 56.362 48.7466C60.3807 48.752 64.3177 47.6114 67.7111 45.4585C71.1045 43.3056 73.8136 40.2298 75.5207 36.5916C77.2163 32.9588 77.8329 28.9156 77.2971 24.9425C76.7612 20.9694 75.0956 17.2336 72.4983 14.1797C72.3419 13.9899 72.1446 13.8382 71.9211 13.7357C71.6976 13.6333 71.4538 13.5827 71.208 13.5881Z" fill="#ECECEC"/>
<path d="M79.112 4.875V9.75C79.112 12.4475 76.9377 14.625 74.237 14.625H64.487C61.7895 14.625 59.612 12.4475 59.612 9.75V4.875" fill="#000210"/>
<path d="M69.336 13.3087C68.9061 13.3155 68.4965 13.4924 68.1968 13.8006C67.8971 14.1088 67.7318 14.5232 67.737 14.9531V21.1282C67.737 23.8582 65.592 26.0032 62.862 26.0032H36.862C36.431 26.0032 36.0177 26.1741 35.713 26.4788C35.4082 26.7836 35.237 27.1972 35.237 27.6282V27.7416C35.2465 32.0973 36.6079 36.3426 39.1333 39.8914C41.6586 43.4403 45.2234 46.1177 49.3355 47.5539C49.5387 47.6316 49.7555 47.6676 49.9729 47.6602C50.1904 47.6527 50.4041 47.6017 50.6016 47.5102C50.799 47.4188 50.9761 47.2888 51.1224 47.1278C51.2687 46.9667 51.3812 46.778 51.4533 46.5728C51.5254 46.3675 51.5557 46.1496 51.5423 45.9324C51.5289 45.7153 51.4721 45.5032 51.3752 45.3084C51.2784 45.1135 51.1435 44.94 50.9785 44.7982C50.8134 44.6564 50.6217 44.5489 50.4145 44.4824C43.7585 42.1456 39.3352 36.1399 38.7275 29.2532H62.862C67.334 29.2532 70.987 25.6034 70.987 21.1282V14.9531C70.9896 14.7359 70.9487 14.5203 70.8666 14.3191C70.7844 14.118 70.6628 13.9353 70.5089 13.7819C70.355 13.6286 70.1719 13.5078 69.9704 13.4265C69.7689 13.3452 69.5532 13.3052 69.336 13.3087Z" fill="#ECECEC"/>
<path d="M56.336 35.727C55.9061 35.7338 55.4965 35.9107 55.1968 36.2189C54.8971 36.5272 54.7318 36.9415 54.737 37.3714V48.0966C52.9235 47.3881 51.487 45.9743 51.487 43.8845V37.3845C51.487 36.9535 51.3158 36.5403 51.011 36.2356C50.7063 35.9308 50.293 35.7595 49.862 35.7595C49.431 35.7595 49.0177 35.9308 48.713 36.2356C48.4082 36.5403 48.237 36.9535 48.237 37.3845V43.8845C48.237 48.3598 51.89 52.0095 56.362 52.0095C56.7919 52.0095 57.2042 51.8392 57.5088 51.5358C57.8133 51.2325 57.9853 50.8207 57.987 50.3909V37.3782C57.9896 37.1609 57.9487 36.9453 57.8666 36.7442C57.7844 36.5431 57.6628 36.3603 57.5089 36.207C57.355 36.0537 57.1719 35.9329 56.9704 35.8516C56.7689 35.7702 56.5532 35.7302 56.336 35.7337V35.727ZM59.586 3.22699C59.1561 3.23383 58.7465 3.41071 58.4468 3.71893C58.1471 4.02715 57.9818 4.44155 57.987 4.87143V9.74643C57.987 13.3214 60.912 16.2464 64.487 16.2464H74.237C77.812 16.2464 80.737 13.3214 80.737 9.74643V4.87143C80.737 4.44045 80.5658 4.02725 80.2611 3.7225C79.9563 3.41775 79.543 3.24643 79.112 3.24643C78.681 3.24643 78.2677 3.41775 77.963 3.7225C77.6582 4.02725 77.487 4.44045 77.487 4.87143V9.74643C77.487 11.5762 76.0667 12.9964 74.237 12.9964H64.487C62.6573 12.9964 61.237 11.5762 61.237 9.74643V4.87143C61.2396 4.65419 61.1987 4.43859 61.1166 4.23745C61.0344 4.03632 60.9128 3.854 60.7589 3.70068C60.605 3.54736 60.4219 3.42614 60.2204 3.34481C60.019 3.26349 59.8032 3.22349 59.586 3.22699Z" fill="#ECECEC"/>
<path d="M59.612 3.24661C59.181 3.24661 58.7677 3.41794 58.463 3.72269C58.1582 4.02743 57.987 4.44064 57.987 4.87161C57.987 5.30259 58.1582 5.71619 58.463 6.02093C58.7677 6.32568 59.181 6.49661 59.612 6.49661H66.112C67.0415 6.49661 67.737 7.19536 67.737 8.12161C67.737 8.55259 67.9082 8.96619 68.2129 9.27093C68.5177 9.57568 68.931 9.74661 69.362 9.74661C69.793 9.74661 70.2063 9.57568 70.511 9.27093C70.8158 8.96619 70.987 8.55259 70.987 8.12161C70.987 5.45011 68.7835 3.24661 66.112 3.24661H59.612Z" fill="#ECECEC"/>
<path d="M72.612 3.24661C69.9405 3.24661 67.737 5.45011 67.737 8.12161C67.737 8.55259 67.9082 8.96619 68.2129 9.27093C68.5177 9.57568 68.931 9.74661 69.362 9.74661C69.793 9.74661 70.2063 9.57568 70.511 9.27093C70.8158 8.96619 70.987 8.55259 70.987 8.12161C70.987 7.19536 71.6825 6.49661 72.612 6.49661H79.112C79.543 6.49661 79.9563 6.32568 80.261 6.02093C80.5658 5.71619 80.737 5.30259 80.737 4.87161C80.737 4.44064 80.5658 4.02743 80.261 3.72269C79.9563 3.41794 79.543 3.24661 79.112 3.24661H72.612Z" fill="#ECECEC"/>
<path d="M44.987 34.125C44.987 34.556 44.8158 34.9693 44.511 35.274C44.2063 35.5788 43.793 35.75 43.362 35.75C42.931 35.75 42.5177 35.5788 42.213 35.274C41.9082 34.9693 41.737 34.556 41.737 34.125C41.737 33.694 41.9082 33.2807 42.213 32.976C42.5177 32.6712 42.931 32.5 43.362 32.5C43.793 32.5 44.2063 32.6712 44.511 32.976C44.8158 33.2807 44.987 33.694 44.987 34.125Z" fill="#ECECEC"/>
</g>
<path d="M106.253 37.288C104.61 37.288 103.117 36.9147 101.773 36.168C100.45 35.4213 99.4046 34.3653 98.6366 33C97.89 31.6133 97.5166 30.0133 97.5166 28.2C97.5166 26.408 97.9006 24.8293 98.6686 23.464C99.458 22.0773 100.525 21.0213 101.869 20.296C103.213 19.5493 104.717 19.176 106.381 19.176C108.045 19.176 109.549 19.5493 110.893 20.296C112.237 21.0213 113.293 22.0667 114.061 23.432C114.85 24.7973 115.245 26.3867 115.245 28.2C115.245 30.0133 114.839 31.6133 114.029 33C113.239 34.3653 112.162 35.4213 110.797 36.168C109.431 36.9147 107.917 37.288 106.253 37.288ZM106.253 34.728C107.298 34.728 108.279 34.4827 109.197 33.992C110.114 33.5013 110.85 32.7653 111.405 31.784C111.981 30.8027 112.269 29.608 112.269 28.2C112.269 26.792 111.991 25.5973 111.437 24.616C110.882 23.6347 110.157 22.9093 109.261 22.44C108.365 21.9493 107.394 21.704 106.349 21.704C105.282 21.704 104.301 21.9493 103.405 22.44C102.53 22.9093 101.826 23.6347 101.293 24.616C100.759 25.5973 100.493 26.792 100.493 28.2C100.493 29.6293 100.749 30.8347 101.261 31.816C101.794 32.7973 102.498 33.5333 103.373 34.024C104.247 34.4933 105.207 34.728 106.253 34.728ZM117.985 28.2C117.985 26.3867 118.348 24.808 119.073 23.464C119.799 22.0987 120.801 21.0427 122.081 20.296C123.383 19.5493 124.865 19.176 126.529 19.176C128.684 19.176 130.455 19.6987 131.841 20.744C133.249 21.7893 134.177 23.24 134.625 25.096H131.489C131.191 24.0293 130.604 23.1867 129.729 22.568C128.876 21.9493 127.809 21.64 126.529 21.64C124.865 21.64 123.521 22.216 122.497 23.368C121.473 24.4987 120.961 26.1093 120.961 28.2C120.961 30.312 121.473 31.944 122.497 33.096C123.521 34.248 124.865 34.824 126.529 34.824C127.809 34.824 128.876 34.5253 129.729 33.928C130.583 33.3307 131.169 32.4773 131.489 31.368H134.625C134.156 33.16 133.217 34.6 131.809 35.688C130.401 36.7547 128.641 37.288 126.529 37.288C124.865 37.288 123.383 36.9147 122.081 36.168C120.801 35.4213 119.799 34.3653 119.073 33C118.348 31.6347 117.985 30.0347 117.985 28.2ZM154.511 27.56C154.511 28.1147 154.479 28.7013 154.415 29.32H140.399C140.506 31.048 141.092 32.4027 142.159 33.384C143.247 34.344 144.559 34.824 146.095 34.824C147.354 34.824 148.399 34.536 149.231 33.96C150.084 33.3627 150.682 32.5733 151.023 31.592H154.159C153.69 33.2773 152.751 34.6533 151.343 35.72C149.935 36.7653 148.186 37.288 146.095 37.288C144.431 37.288 142.938 36.9147 141.615 36.168C140.314 35.4213 139.29 34.3653 138.543 33C137.796 31.6133 137.423 30.0133 137.423 28.2C137.423 26.3867 137.786 24.7973 138.511 23.432C139.236 22.0667 140.25 21.0213 141.551 20.296C142.874 19.5493 144.388 19.176 146.095 19.176C147.759 19.176 149.231 19.5387 150.511 20.264C151.791 20.9893 152.772 21.992 153.455 23.272C154.159 24.5307 154.511 25.96 154.511 27.56ZM151.503 26.952C151.503 25.8427 151.258 24.8933 150.767 24.104C150.276 23.2933 149.604 22.6853 148.751 22.28C147.919 21.8533 146.991 21.64 145.967 21.64C144.495 21.64 143.236 22.1093 142.191 23.048C141.167 23.9867 140.58 25.288 140.431 26.952H151.503ZM157.267 28.168C157.267 26.376 157.629 24.808 158.355 23.464C159.08 22.0987 160.072 21.0427 161.331 20.296C162.611 19.5493 164.029 19.176 165.587 19.176C167.123 19.176 168.456 19.5067 169.587 20.168C170.717 20.8293 171.56 21.6613 172.115 22.664V19.464H175.059V37H172.115V33.736C171.539 34.76 170.675 35.6133 169.523 36.296C168.392 36.9573 167.069 37.288 165.555 37.288C163.997 37.288 162.589 36.904 161.331 36.136C160.072 35.368 159.08 34.2907 158.355 32.904C157.629 31.5173 157.267 29.9387 157.267 28.168ZM172.115 28.2C172.115 26.8773 171.848 25.7253 171.315 24.744C170.781 23.7627 170.056 23.016 169.139 22.504C168.243 21.9707 167.251 21.704 166.163 21.704C165.075 21.704 164.083 21.96 163.187 22.472C162.291 22.984 161.576 23.7307 161.043 24.712C160.509 25.6933 160.243 26.8453 160.243 28.168C160.243 29.512 160.509 30.6853 161.043 31.688C161.576 32.6693 162.291 33.4267 163.187 33.96C164.083 34.472 165.075 34.728 166.163 34.728C167.251 34.728 168.243 34.472 169.139 33.96C170.056 33.4267 170.781 32.6693 171.315 31.688C171.848 30.6853 172.115 29.5227 172.115 28.2ZM188.524 19.144C190.657 19.144 192.385 19.7947 193.708 21.096C195.03 22.376 195.692 24.232 195.692 26.664V37H192.812V27.08C192.812 25.3307 192.374 23.9973 191.5 23.08C190.625 22.1413 189.43 21.672 187.916 21.672C186.38 21.672 185.153 22.152 184.236 23.112C183.34 24.072 182.892 25.4693 182.892 27.304V37H179.98V19.464H182.892V21.96C183.468 21.064 184.246 20.3707 185.228 19.88C186.23 19.3893 187.329 19.144 188.524 19.144ZM199.36 28.168C199.36 26.376 199.723 24.808 200.448 23.464C201.174 22.0987 202.166 21.0427 203.424 20.296C204.704 19.5493 206.123 19.176 207.68 19.176C209.216 19.176 210.55 19.5067 211.68 20.168C212.811 20.8293 213.654 21.6613 214.208 22.664V19.464H217.152V37H214.208V33.736C213.632 34.76 212.768 35.6133 211.616 36.296C210.486 36.9573 209.163 37.288 207.648 37.288C206.091 37.288 204.683 36.904 203.424 36.136C202.166 35.368 201.174 34.2907 200.448 32.904C199.723 31.5173 199.36 29.9387 199.36 28.168ZM214.208 28.2C214.208 26.8773 213.942 25.7253 213.408 24.744C212.875 23.7627 212.15 23.016 211.232 22.504C210.336 21.9707 209.344 21.704 208.256 21.704C207.168 21.704 206.176 21.96 205.28 22.472C204.384 22.984 203.67 23.7307 203.136 24.712C202.603 25.6933 202.336 26.8453 202.336 28.168C202.336 29.512 202.603 30.6853 203.136 31.688C203.67 32.6693 204.384 33.4267 205.28 33.96C206.176 34.472 207.168 34.728 208.256 34.728C209.344 34.728 210.336 34.472 211.232 33.96C212.15 33.4267 212.875 32.6693 213.408 31.688C213.942 30.6853 214.208 29.5227 214.208 28.2ZM224.985 22.312C225.497 21.3093 226.223 20.5307 227.161 19.976C228.121 19.4213 229.284 19.144 230.649 19.144V22.152H229.881C226.617 22.152 224.985 23.9227 224.985 27.464V37H222.073V19.464H224.985V22.312ZM235.515 16.616C234.96 16.616 234.491 16.424 234.107 16.04C233.723 15.656 233.531 15.1867 233.531 14.632C233.531 14.0773 233.723 13.608 234.107 13.224C234.491 12.84 234.96 12.648 235.515 12.648C236.048 12.648 236.496 12.84 236.859 13.224C237.243 13.608 237.435 14.0773 237.435 14.632C237.435 15.1867 237.243 15.656 236.859 16.04C236.496 16.424 236.048 16.616 235.515 16.616ZM236.923 19.464V37H234.011V19.464H236.923ZM257.438 19.464V37H254.526V34.408C253.971 35.304 253.193 36.008 252.19 36.52C251.209 37.0107 250.121 37.256 248.926 37.256C247.561 37.256 246.334 36.9787 245.246 36.424C244.158 35.848 243.294 34.9947 242.654 33.864C242.035 32.7333 241.726 31.3573 241.726 29.736V19.464H244.606V29.352C244.606 31.08 245.043 32.4133 245.918 33.352C246.793 34.2693 247.987 34.728 249.502 34.728C251.059 34.728 252.286 34.248 253.182 33.288C254.078 32.328 254.526 30.9307 254.526 29.096V19.464H257.438ZM283.443 19.144C284.808 19.144 286.024 19.432 287.091 20.008C288.157 20.5627 289 21.4053 289.619 22.536C290.237 23.6667 290.547 25.0427 290.547 26.664V37H287.667V27.08C287.667 25.3307 287.229 23.9973 286.355 23.08C285.501 22.1413 284.339 21.672 282.867 21.672C281.352 21.672 280.147 22.1627 279.251 23.144C278.355 24.104 277.907 25.5013 277.907 27.336V37H275.027V27.08C275.027 25.3307 274.589 23.9973 273.715 23.08C272.861 22.1413 271.699 21.672 270.227 21.672C268.712 21.672 267.507 22.1627 266.611 23.144C265.715 24.104 265.267 25.5013 265.267 27.336V37H262.355V19.464H265.267V21.992C265.843 21.0747 266.611 20.3707 267.571 19.88C268.552 19.3893 269.629 19.144 270.803 19.144C272.275 19.144 273.576 19.4747 274.707 20.136C275.837 20.7973 276.68 21.768 277.235 23.048C277.725 21.8107 278.536 20.8507 279.667 20.168C280.797 19.4853 282.056 19.144 283.443 19.144Z" fill="#ECECEC"/>
<defs>
<clipPath id="clip0_202_240">
<rect width="52" height="52" fill="white" transform="translate(32)"/>
</clipPath>
</defs>
</svg>
